<svg xmlns="http://www.w3.org/2000/svg" width="572.444" height="820.924" viewBox="0 0 572.444 820.924"><defs><style>.a,.b,.c,.i{fill:none;}.a,.c{stroke:#f2eff8;}.a{stroke-width:10px;}.b{stroke:#ebf8fd;}.b,.c{stroke-width:7px;}.d{fill:#ebf8fd;}.e{fill:#fff4f4;}.f{fill:#faefef;}.g{fill:#f2eff8;}.h{stroke:none;}</style></defs><g transform="translate(-974.891 -79.29)"><g class="a" transform="translate(1119 635.219)"><circle class="h" cx="41" cy="41" r="41"/><circle class="i" cx="41" cy="41" r="36"/></g><g class="b" transform="translate(1496 353)"><circle class="h" cx="22" cy="22" r="22"/><circle class="i" cx="22" cy="22" r="18.5"/></g><g class="c" transform="translate(1096 384)"><circle class="h" cx="24" cy="24" r="24"/><circle class="i" cx="24" cy="24" r="20.5"/></g><path class="d" d="M44.947,0,89.893,78.131H0Z" transform="matrix(0.174, 0.985, -0.985, 0.174, 1317.862, 137.652)"/><path class="e" d="M19.118,0,38.236,34.08H0Z" transform="translate(1008.005 500.953) rotate(-150)"/><path class="f" d="M23,0,46,41H0Z" transform="translate(1031.408 900.215) rotate(-150)"/><path class="e" d="M34.881,0,69.761,63.272H0Z" transform="translate(1227.144 683.914) rotate(-120)"/><path class="g" d="M25.851,0,51.7,46.892H0Z" transform="translate(1343.649 145.965) rotate(-115)"/><path class="g" d="M11.637,0,23.274,20.781H0Z" transform="matrix(-0.259, -0.966, 0.966, -0.259, 1018.466, 459.859)"/><path class="d" d="M16.668,0,33.335,29.764H0Z" transform="translate(1442.457 776.365) rotate(45)"/><path class="d" d="M26.505,0,53.011,47.253H0Z" transform="translate(1509.852 780.385) rotate(45)"/></g></svg>