<svg xmlns="http://www.w3.org/2000/svg" width="99.067" height="61.8" viewBox="0 0 99.067 61.8"><defs><style>.a{fill:#43425d;font-size:11px;font-family:OpenSans, Open Sans;}.b{fill:#fed13c;}.c{fill:#fb6155;}.d{fill:#2830ff;}.e{fill:#fff;}.f{opacity:0.92;}.g{fill:#767676;font-size:8px;font-family:Helvetica;}</style></defs><g transform="translate(-685.41 -798.223)"><text class="a" transform="translate(740.017 810.223)"><tspan x="-29.998" y="0">powered by</tspan></text><g transform="translate(685.41 820.574)"><g transform="translate(0 0)"><g transform="translate(0 0)"><g transform="translate(10.749 2.038)"><path class="b" d="M3610.682,922.323l2.229,13.641c.339,2.072,2.859,3.384,5.629,2.932l15.724-2.569c2.77-.452,4.741-2.5,4.4-4.571l-2.229-13.641c-.338-2.072-2.858-3.385-5.628-2.932l-15.725,2.569C3612.315,918.205,3610.344,920.252,3610.682,922.323Z" transform="translate(-3610.644 -915.094)"/></g><g transform="translate(8.369 0.348)"><path class="c" d="M3596.79,917.325l5.8,14.327c.88,2.176,3.7,3.087,6.3,2.034l14.77-5.976c2.6-1.053,4-3.67,3.116-5.846l-5.8-14.327c-.88-2.176-3.7-3.087-6.3-2.034l-14.769,5.976C3597.3,912.531,3595.909,915.149,3596.79,917.325Z" transform="translate(-3596.526 -905.065)"/></g><g transform="translate(4.644)"><path class="d" d="M3575.2,921.288l9.973,13.839c1.515,2.1,4.741,2.365,7.208.588l14-10.087c2.465-1.777,3.236-4.921,1.721-7.023l-9.974-13.838c-1.514-2.1-4.741-2.365-7.206-.588l-14,10.088C3574.452,916.042,3573.681,919.186,3575.2,921.288Z" transform="translate(-3574.419 -903)"/></g><g transform="translate(0 0.366)"><path d="M3548.4,929.819l14.233,13.169c2.161,2,5.8,1.583,8.127-.932l13.21-14.277c2.327-2.515,2.461-6.175.3-8.175l-14.232-13.169c-2.161-2-5.8-1.583-8.128.932L3548.7,921.644C3546.371,924.159,3546.238,927.819,3548.4,929.819Z" transform="translate(-3546.861 -905.17)"/></g><g transform="translate(13.111 11.004)"><path class="e" d="M3634.788,982.488h-.285c-1.744-.03-2.679-.022-2.679-1.895V968.828a.5.5,0,0,0-.557-.525c-.831-.006-1.663,0-2.495,0-.418,0-.684.184-.684.522q0,.588-.02,1.176c-.055,1.553-.271,2.688-1.773,2.81-.338.028-.733,0-1.082,0a.493.493,0,0,0-.553.523v2.279a.483.483,0,0,0,.485.521l2.08,0c.024,1.677-.008,3.373-.008,5.053a6.085,6.085,0,0,0,.777,2.965c1.575,2.233,4.265,1.777,6.793,1.839.359.009.554-.251.554-.645v-2.217C3635.342,982.74,3635.147,982.488,3634.788,982.488Z" transform="translate(-3624.661 -968.299)"/><path class="e" d="M3677.852,993.248a1.956,1.956,0,0,0-2.091,1.949,1.984,1.984,0,0,0,2.091,1.949,1.948,1.948,0,0,0,2.066-1.949A1.921,1.921,0,0,0,3677.852,993.248Z" transform="translate(-3667.149 -989.043)"/></g></g></g><g class="f" transform="translate(45.181 3.915)"><path d="M3801.985,173a.211.211,0,0,1,.239.239v12.856c0,.212-.1.319-.292.319H3799.9a1.128,1.128,0,0,1-1.128-1.129V176.44a.81.81,0,0,0-.811-.81h0a1.076,1.076,0,0,1-1.076-1.076v-1.315c0-.159.089-.239.266-.239Z" transform="translate(-3764.144 -165.722)"/><path d="M3743.033,173.239a.211.211,0,0,1,.239-.239h3.852a.348.348,0,0,1,.371.265l2.022,6.339a.779.779,0,0,0,1.484,0l2.044-6.367a.329.329,0,0,1,.345-.239h2.683a.331.331,0,0,1,.346.239l2.12,6.579a.78.78,0,0,0,1.485,0l2.079-6.549a.366.366,0,0,1,.4-.265h2.629q.32,0,.213.265l-4.49,12.909a.328.328,0,0,1-.345.239h-2.55a.311.311,0,0,1-.318-.239l-2.212-6.415a.779.779,0,0,0-1.473,0l-2.213,6.415a.311.311,0,0,1-.318.239h-2.55a.313.313,0,0,1-.319-.239l-3.483-10.021a.779.779,0,0,0-.736-.524h-1.066c-.16,0-.239-.089-.239-.266v-2.125Z" transform="translate(-3733.348 -165.722)"/><path d="M3720.648,170.484q-.24,0-.24-.265v-1.572a1,1,0,0,1,1.006-1h.408a.766.766,0,0,0,.765-.766V163.87q0-.24.265-.239h2.949q.265,0,.265.239v3.006a.766.766,0,0,0,.766.766h1.917c.178,0,.266.08.266.239v1.572a1.03,1.03,0,0,1-1.031,1.031h-1.152a.766.766,0,0,0-.766.765v5.131a3.968,3.968,0,0,0,.28,1.594q.278.638,1.368.637a4.578,4.578,0,0,0,1.115-.133.513.513,0,0,1,.159-.027c.071,0,.107.071.107.212v1.478a1.08,1.08,0,0,1-.922,1.075,11.214,11.214,0,0,1-1.522.1,3.734,3.734,0,0,1-3.134-1.2,6.315,6.315,0,0,1-.93-3.852v-5.025a.766.766,0,0,0-.765-.765Z" transform="translate(-3720.408 -160.364)"/><path d="M3801.435,164.211a1.906,1.906,0,0,1-.75-.149,1.969,1.969,0,0,1-.614-.405,1.9,1.9,0,0,1-.416-.6,1.819,1.819,0,0,1-.152-.738,1.8,1.8,0,0,1,.152-.735,1.913,1.913,0,0,1,.416-.6,1.976,1.976,0,0,1,.614-.405,1.96,1.96,0,0,1,1.5,0,1.918,1.918,0,0,1,1.023,1,1.8,1.8,0,0,1,.152.735,1.822,1.822,0,0,1-.152.738,1.907,1.907,0,0,1-1.023,1.009,1.9,1.9,0,0,1-.749.149Z" transform="translate(-3765.642 -158.531)"/><g transform="translate(39.677)"><path d="M3827.03,156h-3.2v6.15h-.013v1.12a.737.737,0,0,1-1.138.622,5.808,5.808,0,0,0-3.324-.986,5.72,5.72,0,0,0-4.463,2.045,7.917,7.917,0,0,0,0,10.067,5.721,5.721,0,0,0,4.463,2.045,5.8,5.8,0,0,0,3.511-1.117.737.737,0,0,1,1.163.48.3.3,0,0,0,.319.265h1.89a1.058,1.058,0,0,0,1.058-1.058V156.239Q3827.3,156,3827.03,156Zm-4.223,16.814a3.411,3.411,0,0,1-2.63,1.169,3.374,3.374,0,0,1-2.577-1.155,4.315,4.315,0,0,1,0-5.671,3.391,3.391,0,0,1,2.577-1.142,3.429,3.429,0,0,1,2.63,1.155,4.281,4.281,0,0,1,0,5.644Z" transform="translate(-3813.086 -156)"/></g></g><text class="g" transform="translate(46.607 35.648)"><tspan x="0" y="0">the new cash</tspan></text></g></g></svg>